<!DOCTYPE svg PUBLIC "-//W3C//DTD SVG 1.1//EN" "http://www.w3.org/Graphics/SVG/1.1/DTD/svg11.dtd">
<!-- Uploaded to: SVG Repo, www.svgrepo.com, Transformed by: SVG Repo Mixer Tools -->
<svg fill="#ef9e21" height="800px" width="800px" version="1.1" id="Layer_1" xmlns="http://www.w3.org/2000/svg" xmlns:xlink="http://www.w3.org/1999/xlink" viewBox="-158.69 -158.69 829.29 829.29" xml:space="preserve" stroke="#ef9e21" stroke-width="19.452428" transform="rotate(0)">
<g id="SVGRepo_bgCarrier" stroke-width="0" transform="translate(0,0), scale(1)">
<rect x="-158.69" y="-158.69" width="829.29" height="829.29" rx="414.645" fill="#d8e1d9" strokewidth="0"/>
</g>
<g id="SVGRepo_tracerCarrier" stroke-linecap="round" stroke-linejoin="round" stroke="#ffffff" stroke-width="1.023812"/>
<g id="SVGRepo_iconCarrier"> <g> <g> <path d="M322.506,257.503l-36.8-36.8c-1.6-1.6-4-1.6-5.6,0c-1.6,1.6-1.6,4,0,5.6l36.8,36.8c0.8,0.8,2,1.2,2.8,1.2s2-0.4,2.8-1.2 C324.106,261.503,324.106,259.103,322.506,257.503z"/> </g> </g> <g> <g> <path d="M300.106,291.503l-22.8-22.8c-1.6-1.6-4-1.6-5.6,0c-1.6,1.6-1.6,4,0,5.6l22.8,22.8c0.8,0.8,2,1.2,2.8,1.2s2-0.4,2.8-1.2 C301.706,295.503,301.706,293.103,300.106,291.503z"/> </g> </g> <g> <g> <path d="M155.706,373.503l-34-34c-1.6-1.6-4-1.6-5.6,0c-1.6,1.6-1.6,4,0,5.6l34,34c0.8,0.8,2,1.2,2.8,1.2s2-0.4,2.8-1.2 C157.306,377.503,157.306,375.103,155.706,373.503z"/> </g> </g> <g> <g> <path d="M511.306,81.503c-0.4,0-1.6-0.8-2.8-1.2c-14-2.4-30.4-2-47.2,1.6c10-15.2,16.4-30.8,19.2-45.6c0.4-1.2,0-2.8-1.2-3.6 s-2.4-1.2-3.6-1.2c-14.8,2.8-30.4,9.2-45.6,19.2c3.6-17.2,4.4-33.2,1.6-47.2c-0.4-1.2-1.2-2.4-2.4-2.8s-2.4-0.4-3.6,0 c-21.6,12.8-41.6,37.2-55.2,66.8c-8.4,18.4-13.6,37.2-15.2,54.8c-1.2-0.8-2.8-1.6-4-2.4c-12.8-6.4-26.8-10-41.6-10 c-24.4,0-47.6,9.6-64.8,26.8c-30,30-210.4,252.4-244,342c-2.4,8.8,0,18.8,6.8,25.2c4.8,4.8,11.6,7.6,18.4,7.6 c2.4,0,4.4-0.4,7.2-1.2c89.2-33.2,311.6-214,341.6-244s34.8-76,14.4-111.2c18-1.2,36.8-6.8,55.2-15.2c30-13.6,54.4-33.2,66.8-54.8 C512.106,83.903,512.106,82.703,511.306,81.503z M378.106,71.503c12-26,28.8-47.6,46.8-60c1.6,14,0,30.4-4.8,46.8 c-6.8,5.2-13.6,10.8-20,17.2c-10,10-18.4,20.8-25.6,32c-1.2,2-0.8,4.4,1.2,5.6c2,1.2,4.4,0.8,5.6-1.2 c6.8-10.8,14.8-20.8,24.4-30.4c20-20,43.6-34.4,64.8-40c-5.6,21.6-19.6,44.8-40,64.8c-16,16-34.8,28.8-52.8,36 c-1.2-1.6-2.4-2.8-4-4.4c-3.6-3.6-7.2-6.8-11.2-9.6C364.506,110.303,369.706,90.703,378.106,71.503z M368.906,143.503 c4.8,4.8,9.2,10.4,12.4,16c-5.6-0.4-12.8-4-18.8-9.6c-6.4-6.4-9.6-13.6-9.6-18.8C358.506,134.303,364.106,138.703,368.906,143.503 z M375.706,253.903l-36.4-36.4c-1.6-1.6-4-1.6-5.6,0c-1.6,1.6-1.6,4,0,5.6l36.8,36.8c-0.4,0.8-1.2,1.2-1.6,2 c-9.6,9.6-42.4,37.2-84,70.4l-47.2-46.8c-1.6-1.6-4-1.6-5.6,0c-1.6,1.6-1.6,4,0,5.6l46.4,46.4c-18,14-37.6,29.2-57.6,44.4 c0,0,0,0,0-0.4l-25.6-25.6c-1.6-1.6-4-1.6-5.6,0c-1.6,1.6-1.6,4,0,5.6l24.8,24.8c-19.2,14.4-38.8,28.8-58,42l-25.6-25.6 c-1.6-1.6-4-1.6-5.6,0c-1.6,1.6-1.6,4,0,5.6l24.4,24.8c-9.6,6.4-18.8,12.8-28,19.2l-11.2-11.2c-1.6-1.6-4-1.6-5.6,0 c-1.6,1.6-1.6,4,0,5.6l10.4,10.4c-33.2,21.6-63.2,38.8-84.4,46.8c-6,1.6-12.8,0-17.6-4.8c-4.4-4.4-6.4-11.2-4.8-17.2 c5.2-13.6,14-30.8,25.2-50l28.8,28.8c0.8,0.8,2,1.2,2.8,1.2s2-0.4,2.8-1.2c1.6-1.6,1.6-4,0-5.6l-30-30 c11.6-19.6,26-40.8,41.2-62.8l6.8,6.8c0.8,0.8,2,1.2,2.8,1.2c1.2,0,2-0.4,2.8-1.2c1.6-1.6,1.6-4,0-5.6l-7.6-7.6 c21.2-30,44.4-61.2,66.4-90l42.4,42.4c0.8,0.8,2,1.2,2.8,1.2s2-0.4,2.8-1.2c1.6-1.6,1.6-4,0-5.6l-43.6-43.2 c6.8-8.8,13.2-17.2,20-25.6l9.2,9.2c0.8,0.8,2,1.2,2.8,1.2s2-0.4,2.8-1.2c1.6-1.6,1.6-4,0-5.6l-10-10c7.2-8.8,13.6-17.2,20-25.2 l29.2,29.2c0.8,0.8,2,1.2,2.8,1.2s2-0.4,2.8-1.2c1.6-1.6,1.6-4,0-5.6l-30-30c7.6-9.2,14.4-17.6,20.4-24.8l9.6,9.6 c0.8,0.8,2,1.2,2.8,1.2c0.8,0,2-0.4,2.8-1.2c1.6-1.6,1.6-4,0-5.6l-10-10c8.8-10.4,15.6-18,19.6-22c16-16,36.8-24.4,59.2-24.4 c12.4,0,24.4,2.8,35.6,8c-1.6,8.8,2.8,19.6,12,28.8c7.6,7.6,17.2,12,25.2,12c1.2,0,2.4,0,3.6-0.4 C398.506,195.103,395.306,229.103,375.706,253.903z M440.906,134.303c-19.2,8.8-38.8,13.6-56.8,14.8l-0.4-0.4 c18.4-7.6,36.8-20.4,53.2-36.8c6.4-6.4,12-13.2,17.2-20c16.4-4.4,32.8-6,46.8-4.8 C488.506,105.503,466.906,122.303,440.906,134.303z"/> </g> </g> </g>
</svg>