<svg fill="#fff" height="800" width="800" xmlns="http://www.w3.org/2000/svg" viewBox="0 0 512 512" xml:space="preserve" stroke="#fff">
  <g stroke-width="0"/>
  <g stroke-linecap="round" stroke-linejoin="round"/>
  <path d="M435.199 48.808H368.04L50.623.447c-13.16-2.006-26.204 2.82-34.89 12.909S4.214 37.06 8.153 49.776q.107.349.232.692l29.416 81.408-20.643 281.443v.001c-1.862 25.4 7.013 50.668 24.351 69.324S83.398 512 108.866 512h222.523c35.675 0 64.699-29.023 64.699-64.699q0-.279-.009-.554l-1.017-28.857h49.97c33.392 0 60.557-27.166 60.557-60.557V119.197c-.002-38.814-31.578-70.389-70.39-70.389zM331.389 480.51H108.866c-16.993 0-32.722-6.855-44.29-19.303s-17.254-28.636-16.011-45.585v.001l20.888-284.79a15.8 15.8 0 0 0-.895-6.503l-30.4-84.13c-.832-3.047.533-5.245 1.44-6.299.932-1.083 2.986-2.832 6.282-2.324l305.691 46.574 13.026 369.401c-.135 18.198-14.98 32.958-33.208 32.958zm142.708-123.177c0 16.028-13.04 29.067-29.067 29.067h-51.08L383.155 80.297h52.043c21.449 0 38.899 17.45 38.899 38.899z"/>
</svg>
